HIERARCHY
ROOT Hips
{
	OFFSET 0.00000 0.00000 0.00000
	CHANNELS 6 Xposition Yposition Zposition Zrotation Yrotation Xrotation 
	JOINT LHipJoint
	{
		OFFSET 0 0 0
		CHANNELS 3 Zrotation Yrotation Xrotation
		JOINT LeftHip
		{
			OFFSET 2.36090 -1.39315 1.24752
			CHANNELS 3 Zrotation Yrotation Xrotation
			JOINT LeftKnee
			{
				OFFSET 2.06810 -5.68207 0.00000
				CHANNELS 3 Zrotation Yrotation Xrotation
				JOINT LeftAnkle
				{
					OFFSET 2.46631 -6.77613 0.00000
					CHANNELS 3 Zrotation Yrotation Xrotation
					JOINT LeftToe
					{
						OFFSET 0.26031 -0.71520 1.99545
						CHANNELS 3 Zrotation Yrotation Xrotation
						End Site
						{
							OFFSET 0.00000 -0.00000 1.05957
						}
					}
				}
			}
		}
	}
	JOINT RHipJoint
	{
		OFFSET 0 0 0
		CHANNELS 3 Zrotation Yrotation Xrotation
		JOINT RightHip
		{
			OFFSET -2.25243 -1.39315 1.24752
			CHANNELS 3 Zrotation Yrotation Xrotation
			JOINT RightKnee
			{
				OFFSET -2.17343 -5.97145 0.00000
				CHANNELS 3 Zrotation Yrotation Xrotation
				JOINT RightAnkle
				{
					OFFSET -2.52372 -6.93386 0.00000
					CHANNELS 3 Zrotation Yrotation Xrotation
					JOINT RightToe
					{
						OFFSET -0.22538 -0.61923 2.11447
						CHANNELS 3 Zrotation Yrotation Xrotation
						End Site
						{
							OFFSET -0.00000 -0.00000 1.10506
						}
					}
				}
			}
		}
	}
	JOINT lowerback
	{
		OFFSET 0 0 0
		CHANNELS 3 Zrotation Yrotation Xrotation
		JOINT Chest
		{
			OFFSET 0.01594 2.13103 0.08007
			CHANNELS 3 Zrotation Yrotation Xrotation
			JOINT Chest2
			{
				OFFSET 0.01393 2.09723 0.18338
				CHANNELS 3 Zrotation Yrotation Xrotation
				JOINT lowerneck
				{
					OFFSET 0 0 0
					CHANNELS 3 Zrotation Yrotation Xrotation
					JOINT Neck
					{
						OFFSET 0.05351 1.38915 0.32494
						CHANNELS 3 Zrotation Yrotation Xrotation
						JOINT Head
						{
							OFFSET 0.00711 1.45992 -0.21666
							CHANNELS 3 Zrotation Yrotation Xrotation
							End Site
							{
								OFFSET -0.00433 1.47702 -0.11056
							}
						}
					}
				}
				JOINT LeftCollar
				{
					OFFSET 0 0 0
					CHANNELS 3 Zrotation Yrotation Xrotation
					JOINT LeftShoulder
					{
						OFFSET 2.87198 0.92249 0.11132
CHANNELS 3 Zrotation Xrotation Yrotation
						JOINT LeftElbow
						{
OFFSET 0 -5.527310 0.000000
CHANNELS 3 Zrotation Xrotation Yrotation
							JOINT LeftWrist
							{
OFFSET 0 -3.110590 0.000000
CHANNELS 3 Zrotation Xrotation Yrotation
								JOINT lhand
								{
									OFFSET 0 0 0
CHANNELS 3 Zrotation Xrotation Yrotation
									JOINT LFingers
									{
OFFSET 0 -0.419630 0.000000
CHANNELS 3 Zrotation Xrotation Yrotation
										End Site
										{
OFFSET 0 -0.338310 0.000000
										}
									}
								}
								JOINT LThumb
								{
OFFSET 0 0.000000 0.000000
CHANNELS 3 Zrotation Xrotation Yrotation
									End Site
									{
OFFSET 0 -0.343480 0.343480
									}
								}
							}
						}
					}
				}
				JOINT RightCollar
				{
					OFFSET 0 0 0
					CHANNELS 3 Zrotation Yrotation Xrotation
					JOINT RightShoulder
					{
						OFFSET -2.94710 0.68072 0.32187
CHANNELS 3 Zrotation Xrotation Yrotation
						JOINT RightElbow
						{
OFFSET 0 -5.253960 -0.000000
CHANNELS 3 Zrotation Xrotation Yrotation
							JOINT RightWrist
							{
OFFSET 0 -3.105670 0.000000
CHANNELS 3 Zrotation Xrotation Yrotation
								JOINT rhand
								{
									OFFSET 0 0 0
CHANNELS 3 Zrotation Xrotation Yrotation
									JOINT RFingers
									{
OFFSET 0 -0.498680 0.000000
CHANNELS 3 Zrotation Xrotation Yrotation
										End Site
										{
OFFSET 0 -0.402040 0.000000
										}
									}
								}
								JOINT RThumb
								{
OFFSET 0 0.000000 0.000000
CHANNELS 3 Zrotation Xrotation Yrotation
									End Site
									{
OFFSET 0 -0.408180 0.408180
									}
								}
							}
						}
					}
				}
			}
		}
	}
}
MOTION
Frames: 5
Frame Time: 0.008333333333333333
5.355200 15.818000 21.933300 -28.610300 -77.339300 47.078700 0.000000 0.000000 0.000000 -10.446400 -19.447600 -25.203500 1.848300 8.542700 24.375000 -0.145100 13.219000 -16.904400 0.490100 -4.488700 -12.455900 0.000000 0.000000 0.000000 19.004600 29.281900 -20.978900 -1.497800 -7.730500 21.898600 0.390000 -13.669800 -13.718300 -0.250800 3.222600 -8.899100 4.181900 1.042700 -18.529800 0.615800 0.301900 -4.660600 -1.660100 0.080000 5.374300 5.270100 2.205600 -19.178300 0.568500 0.897400 27.024600 -0.561500 0.901600 12.140000 0.000000 0.000000 0.000000 5.883000 5.904500 -27.175000 16.666000 -26.415300 3.937600 20.881100 -40.664500 0.313400 0.000000 0.000000 0.000000 -7.125000 0.000000 0.000000 -4.463200 29.630300 -1.677500 0.000000 0.000000 0.000000 -5.626000 8.314900 10.252600 -12.441400 -20.463200 -2.254200 -28.449900 6.951900 17.848300 0.000000 0.000000 0.000000 7.125000 0.000000 -0.000000 -0.426900 50.093200 0.053600
5.377136 15.816293 21.937325 -27.819573 -77.131949 46.316652 0.000000 0.000000 0.000000 -10.389231 -19.859482 -25.280149 1.847186 8.540252 24.367504 -0.151899 13.251546 -16.860946 0.459945 -4.349875 -12.063190 0.000000 0.000000 0.000000 18.956004 28.740050 -21.264774 -1.500191 -7.736542 21.916725 0.359170 -13.372763 -13.688173 -0.255866 3.252846 -8.983637 4.226646 0.876421 -18.480182 0.679808 0.072008 -4.729892 -1.669717 -0.036935 5.260113 5.203476 2.272496 -19.218300 0.608909 0.993558 27.151139 -0.519482 0.943538 12.199708 0.000000 0.000000 0.000000 5.885576 5.763084 -29.750625 16.990897 -26.845786 4.083279 20.974711 -40.125087 0.967882 0.000000 0.000000 0.000000 -7.125000 0.000000 0.000000 -4.362114 28.931699 -1.711922 0.000000 0.000000 0.000000 -5.395021 8.438125 6.890788 -12.012577 -19.823486 -2.106574 -30.017039 8.056005 19.384922 0.000000 0.000000 0.000000 7.125000 0.000000 0.000000 -1.769895 52.086233 0.309021
5.397088 15.813504 21.933771 -27.434388 -77.022036 45.921939 0.000000 0.000000 0.000000 -10.307465 -20.116422 -25.352570 1.856601 8.560840 24.430916 -0.134851 13.150950 -16.941433 0.403192 -4.076202 -11.291160 0.000000 0.000000 0.000000 19.009977 28.238645 -21.495299 -1.497683 -7.730248 21.897805 0.350744 -13.158267 -13.403819 -0.328770 3.684242 -10.190107 4.178459 0.719711 -18.378254 0.772090 -0.125933 -4.777514 -1.588441 -0.138233 5.143784 5.017416 2.355645 -19.250474 0.726933 1.134323 27.204953 -0.420555 1.003006 12.228293 0.000000 0.000000 0.000000 5.979924 5.558861 -32.250620 17.268517 -27.210333 4.209416 21.447410 -40.232105 1.226436 0.000000 0.000000 0.000000 -7.125000 0.000000 0.000000 -3.984808 28.653124 -1.589527 0.000000 0.000000 0.000000 -5.350260 8.719102 4.966090 -11.807451 -19.515277 -2.037517 -29.224181 7.860937 20.278647 0.000000 0.000000 0.000000 7.125000 0.000000 0.000000 -0.782401 52.924588 0.152136
5.417339 15.811900 21.924807 -27.224170 -76.958144 45.711783 0.000000 0.000000 0.000000 -10.237255 -20.210360 -25.473563 1.865612 8.580252 24.490867 -0.119691 13.026984 -16.958763 0.373248 -3.923901 -10.862735 0.000000 0.000000 0.000000 19.044385 27.977809 -21.676248 -1.497840 -7.730755 21.899366 0.347094 -13.038714 -13.225210 -0.373133 3.923389 -10.861135 4.139953 0.628073 -18.231701 0.777093 -0.230717 -4.816125 -1.583984 -0.192947 5.019171 4.997762 2.384635 -19.298820 0.824002 1.151165 27.174500 -0.377376 1.021614 12.226178 0.000000 0.000000 0.000000 6.334354 5.259441 -34.709921 17.484456 -27.491958 4.308618 21.861794 -40.641938 1.276033 0.000000 0.000000 0.000000 -7.125000 0.000000 0.000000 -3.661139 28.597476 -1.464850 0.000000 0.000000 0.000000 -5.267171 9.133987 4.123370 -11.773375 -19.463923 -2.026192 -26.682811 6.719400 20.576094 0.000000 0.000000 0.000000 7.125000 0.000000 0.000000 1.923733 52.759085 -0.366901
5.438989 15.812058 21.912860 -26.992597 -76.892912 45.468712 0.000000 0.000000 0.000000 -10.186664 -20.252808 -25.572228 1.865750 8.580643 24.492128 -0.113276 12.928627 -16.895028 0.362756 -3.869016 -10.708433 0.000000 0.000000 0.000000 19.031141 27.936853 -21.789161 -1.503774 -7.745297 21.943230 0.342988 -13.015180 -13.257808 -0.351407 3.808539 -10.538707 4.048969 0.513978 -17.993868 0.798042 -0.350692 -4.846164 -1.535130 -0.255329 4.854981 5.040420 2.411097 -19.323213 0.886711 1.159706 27.063758 -0.359321 1.037902 12.188127 0.000000 0.000000 0.000000 6.695694 4.920370 -36.710130 17.617162 -27.664188 4.370052 21.966122 -40.835705 1.254182 0.000000 0.000000 0.000000 -7.125000 0.000000 0.000000 -3.580819 28.620214 -1.430610 0.000000 0.000000 0.000000 -5.319013 9.635506 4.630005 -11.868425 -19.607075 -2.057961 -23.904974 5.483322 20.150712 0.000000 0.000000 0.000000 7.125000 0.000000 0.000000 4.643293 51.791873 -0.776031
